<svg id="visual" viewBox="0 0 900 300" width="900" height="300" xmlns="http://www.w3.org/2000/svg" xmlns:xlink="http://www.w3.org/1999/xlink" version="1.1"><rect x="0" y="0" width="900" height="300" fill="#055eda"></rect><path d="M0 210L13.7 205.8C27.3 201.7 54.7 193.3 82 195C109.3 196.7 136.7 208.3 163.8 219.3C191 230.3 218 240.7 245.2 236.8C272.3 233 299.7 215 327 213.7C354.3 212.3 381.7 227.7 409 234.8C436.3 242 463.7 241 491 228.2C518.3 215.3 545.7 190.7 573 189.2C600.3 187.7 627.7 209.3 654.8 214.8C682 220.3 709 209.7 736.2 200C763.3 190.3 790.7 181.7 818 184.5C845.3 187.3 872.7 201.7 886.3 208.8L900 216L900 301L886.3 301C872.7 301 845.3 301 818 301C790.7 301 763.3 301 736.2 301C709 301 682 301 654.8 301C627.7 301 600.3 301 573 301C545.7 301 518.3 301 491 301C463.7 301 436.3 301 409 301C381.7 301 354.3 301 327 301C299.7 301 272.3 301 245.2 301C218 301 191 301 163.8 301C136.7 301 109.3 301 82 301C54.7 301 27.3 301 13.7 301L0 301Z" fill="#9c1067" stroke-linecap="round" stroke-linejoin="miter"></path></svg>