<svg xmlns="http://www.w3.org/2000/svg" viewBox="0 0 799.3 270"><defs><style>.cls-1{fill:#1b4297;}.cls-2{fill:#fff;}</style></defs><g id="Layer_2" data-name="Layer 2"><g id="Layer_1-2" data-name="Layer 1"><polygon class="cls-1" points="0 0 799.3 0 799.3 270 0 270 0 0"/><path class="cls-2" d="M588.1,38.9V222.7h174V38.9ZM750.1,210h-150V51.5h150Z"/><path class="cls-2" d="M645.4,89.6v30.1L619,135.9V172l29.3,18.1h0c.1,0,26.9-16,26.9-16l25.9,16,30-18.3V135.9l-26.4-16.2V89.6l-29.5-18Zm0,44.7V156l17.7,10.8-14.5,8.9L631,164.9V143.2ZM675.2,86l17.6,10.8v51.8c-.1.1-17.5,10.7-17.6,10.7s-17.7-10.7-17.9-10.7V96.8Zm29.5,70h0V134.3l14.5,8.8v21.7l-17.7,10.8-14.4-8.9Z"/><path class="cls-2" d="M96.7,132h9.4v-8.2H96.7ZM410.8,52.8h-9.4V61h9.4ZM217.5,126.2h9.4V118h-9.4ZM247.9,102ZM80.4,132h9.4v-8.2H80.4ZM217.1,70.8a35.41,35.41,0,0,0-15.9,3.5v16h9.4v-12a15.37,15.37,0,0,1,7-1.4c9.7,0,19.9,9.1,19.9,25.7h0a9.22,9.22,0,0,1-.3,2.4H193.8v-2.2c0-18.8-12.7-31.9-30.8-31.9a35.41,35.41,0,0,0-15.9,3.5v16h9.4v-12a15.37,15.37,0,0,1,7-1.4c9.6,0,19.9,9.1,19.9,25.7v2.4H137.7V67.3h-8.6c-23,0-23.7,11.8-23.7,25.6v12.3c0,6.8-2.4,8.1-6.1,8.1H92c-4.7,0-12.5-.7-12.5-17.7,0-14.3,6.3-20.6,18.8-20.5V69.5c-9.7,0-15.7,1.8-21.3,7.3-4.8,4.7-6.9,11.1-6.9,19.1,0,17.6,7.8,23.5,18.4,23.5h13.3c8.4,0,13.1-5.3,13.1-15V91.8c0-11.9,1.8-18.4,13.3-18.4v37.8H246.8a48.15,48.15,0,0,0,1.1-8.9C247.5,83.7,235,70.8,217.1,70.8ZM387.7,81.7c0,9.3,6.5,15.3,17.5,15.3h6.7v.9c0,4.6-2.1,7-6.2,7H377.2c-11.8,0-16.1-3.3-16.1-12.9V73.6h-9.4V93.5c0,13.4,6.2,17.4,24.1,17.4H408c4.3,0,7.6-1.5,10-4.6a16.14,16.14,0,0,0,3.2-10.2v-29H406.6C393.7,67.1,387.7,72,387.7,81.7Zm23.9-8.5V91.6h-3.9c-2.9,0-10.7-.8-10.7-9.4,0-5.9,3.4-9,10.3-9ZM257,110.9h9.4V47.3H257Zm290.2-32c-8.6-7.7-25.3-4.9-30.6-3.9v30h-9c.2-.8.4-2.9.4-2.9,1.2-15.9-8-24.8-21-24.8-10.1,0-19.3,6.5-25.9,15.4l-1.4,2.1V79h-9.4V96.2c0,6-2,8.7-6.3,8.7h-4.4V73.6h-9.5v37.6c0,5.4,0,8.1-1.6,11.2a7.39,7.39,0,0,1-4.3,3.6v3c10.7-.2,15.4-5.7,15.4-18.1h91.5c12.5,0,21.3-7.3,21.3-18.5C552.4,86.7,550.9,82.2,547.2,78.9Zm-48.4,22.6c0,.1-.4,3.5-.4,3.5H461.8l.7-1.2c6.9-13.5,15.4-19.8,24.9-19.4C495.7,84.7,499.6,91.9,498.8,101.5Zm30.7,3.4h-3.4V80.4a10.62,10.62,0,0,1,3.3-.4c8.7,0,13.5,4.6,13.5,12.5S537.3,104.9,529.5,104.9Zm-216.5,6h9.4V47.3H313ZM294.5,96c0,7.4-3.4,8.9-6.3,8.9h-3.3V73.6h-9.4v37.6c0,5.4,0,8.1-1.6,11.2a7.7,7.7,0,0,1-4.3,3.6v3c10.7-.2,15.3-5.7,15.3-18.1h5.6c4.4,0,7.8-1.5,10.2-4.7A16.38,16.38,0,0,0,304,95.8V47.4h-9.4C294.5,50,294.5,96,294.5,96Z"/><rect class="cls-2" x="139.4" y="150.6" width="9.4" height="63.6"/><path class="cls-2" d="M101,153.7,77.7,214.1h8.8l6.1-16.9h22.6l5.4,16.9h10.9L110,153.7Zm3.4,10.6,8.8,26.8H94.8Z"/><path class="cls-2" d="M381.3,153.7v60.4h17.8c13.1,0,21.6-6.9,21.6-17.5,0-8.9-7.6-14.1-14.7-14.5v-1.5c1.9-.5,11-3.7,11-14.5,0-8-6.2-12.4-16.1-12.4Zm9.5,6h6.9c6.1,0,9.7,3.3,9.7,8.7,0,6.4-5,11.2-12.2,11.2h-4.5V159.7Zm0,25.9H399c7.7,0,12.3,4.2,12.3,11.2s-4.8,11.4-12.3,11.4h-8.3V185.6Z"/><polygon class="cls-2" points="522.8 150.6 522.8 214.1 532.3 214.1 532.3 189 549.9 214.9 559.1 211.4 542.8 189.4 555.3 173.7 546.9 169.5 532.3 188.8 532.3 150.6 522.8 150.6"/><path class="cls-2" d="M484.4,176.4l-1.3,1.5v-6.5h-9.3v42.7h9.4V188.5c0-7.2,4.1-11.9,10.5-11.9,5.9,0,9.4,3.9,9.4,11.1v26.4h9.4V186.4c0-10.6-4.8-16-14.3-16A17.88,17.88,0,0,0,484.4,176.4Z"/><rect class="cls-2" x="341" y="171.4" width="9.4" height="42.7"/><rect class="cls-2" x="341" y="156" width="9.4" height="8.2"/><rect class="cls-2" x="272.1" y="156" width="9.4" height="8.2"/><path class="cls-2" d="M291.9,150.6v63.6h9.4V188.6c0-7.2,4.1-11.9,10.5-11.9,5.9,0,9.4,3.9,9.4,11.1v26.4h9.4V186.5c0-10.6-4.8-16-14.3-16a18.07,18.07,0,0,0-13.8,6l-1.3,1.5V150.7h-9.3Z"/><path class="cls-2" d="M179.8,153.7v60.4h9.4V188.5h7.9S208.9,214,209.4,215c.9-.2,9.1-1.8,10.8-2.1-1-1.8-13.8-26.2-13.8-26.2l.6-.4c6.4-4,9.5-9.7,9.5-17.3,0-9.7-6.7-15.4-18-15.4H179.8Zm9.4,6H197c6.4,0,10.2,4.1,10.2,10.5,0,5.8-3.6,12.4-11.5,12.4h-6.4V159.7Z"/><path class="cls-2" d="M272.1,171.4v43.1a32.82,32.82,0,0,1-1.6,11.2,7.34,7.34,0,0,1-4.3,3.6v3c10.7-.2,15.3-5.7,15.3-18.1V171.5h-9.4Z"/><path class="cls-2" d="M447,170.3a22.41,22.41,0,0,0-15.1,5.4l2.8,4.2a15.92,15.92,0,0,1,10.9-4.2c4.3,0,7.3,3.3,7.9,7.5l.1.7-10,3.1c-10.2,3.1-15,8-15,15.4s4.7,12.7,11.2,12.7c8.9,0,14-8.4,14-8.4v7.4h9.6V186C463.4,175.6,457.9,170.3,447,170.3Zm2.8,35.5a8.26,8.26,0,0,1-6,3.1c-3.3,0-5.8-3.2-5.8-7.4,0-5.4,2.9-9.1,8.8-11l6.2-2.1,1-.3.1,1C454.6,198.8,451.6,203.8,449.8,205.8Z"/><path class="cls-2" d="M245.3,170.3a22.41,22.41,0,0,0-15.1,5.4c.6.9,2.1,3.3,2.7,4.2a15.92,15.92,0,0,1,10.9-4.2c4.3,0,7.3,3.3,7.9,7.5l.1.7-10,3.1c-10.2,3.1-15,8-15,15.4s4.7,12.7,11.2,12.7c8.9,0,14-8.4,14-8.4v7.4h9.6V186C261.8,175.6,256.2,170.3,245.3,170.3Zm2.8,35.5a8.26,8.26,0,0,1-6,3.1c-3.2,0-5.8-3.2-5.8-7.4,0-5.4,3-9.1,8.8-11l6.2-2.1,1-.3.1,1C253,198.8,249.9,203.8,248.1,205.8Z"/></g></g></svg>