<svg id="Layer_1" data-name="Layer 1" xmlns="http://www.w3.org/2000/svg" xmlns:xlink="http://www.w3.org/1999/xlink" viewBox="0 0 1923.35 976.06"><defs><style>.cls-1{fill:none;}.cls-2{clip-path:url(#clip-path);}.cls-3{fill:#01adeb;}.cls-4{fill:#01acea;}.cls-5{fill:#01abe9;}.cls-6{fill:#01aae8;}.cls-7{fill:#02a9e7;}.cls-8{fill:#02a8e7;}.cls-9{fill:#02a7e6;}.cls-10{fill:#02a6e5;}.cls-11{fill:#02a5e4;}.cls-12{fill:#03a4e3;}.cls-13{fill:#03a3e2;}.cls-14{fill:#03a2e1;}.cls-15{fill:#03a1e0;}.cls-16{fill:#03a0df;}.cls-17{fill:#049fde;}.cls-18{fill:#049edd;}.cls-19{fill:#049ddc;}.cls-20{fill:#049cdb;}.cls-21{fill:#049bda;}.cls-22{fill:#059ad9;}.cls-23{fill:#0599d8;}.cls-24{fill:#0598d8;}.cls-25{fill:#0597d7;}.cls-26{fill:#0596d6;}.cls-27{fill:#0695d5;}.cls-28{fill:#0694d4;}.cls-29{fill:#0693d3;}.cls-30{fill:#0692d2;}.cls-31{fill:#0691d1;}.cls-32{fill:#0790d0;}.cls-33{fill:#078fcf;}.cls-34{fill:#078ece;}.cls-35{fill:#078dcd;}.cls-36{fill:#078ccc;}.cls-37{fill:#088bcb;}.cls-38{fill:#088aca;}.cls-39{fill:#0889c9;}.cls-40{fill:#0888c8;}.cls-41{fill:#0887c8;}.cls-42{fill:#0986c7;}.cls-43{fill:#0985c6;}.cls-44{fill:#0984c5;}.cls-45{fill:#0983c4;}.cls-46{fill:#0982c3;}.cls-47{fill:#0a81c2;}.cls-48{fill:#0a80c1;}.cls-49{fill:#0a7fc0;}.cls-50{fill:#0a7ebf;}.cls-51{fill:#0a7dbe;}.cls-52{fill:#0b7cbd;}.cls-53{fill:#0b7bbc;}.cls-54{fill:#0b7abb;}.cls-55{fill:#0b79ba;}.cls-56{fill:#0b78b9;}.cls-57{fill:#0c77b9;}.cls-58{fill:#0c75b8;}.cls-59{fill:#0c74b7;}.cls-60{fill:#0c73b6;}.cls-61{fill:#0c72b5;}.cls-62{fill:#0c71b4;}.cls-63{fill:#0d70b3;}.cls-64{fill:#0d6fb2;}.cls-65{fill:#0d6eb1;}.cls-66{fill:#0d6db0;}.cls-67{fill:#0d6caf;}.cls-68{fill:#0e6bae;}.cls-69{fill:#0e6aad;}.cls-70{fill:#0e69ac;}.cls-71{fill:#0e68ab;}.cls-72{fill:#0e67aa;}.cls-73{fill:#0f66a9;}.cls-74{fill:#0f65a9;}.cls-75{fill:#0f64a8;}.cls-76{fill:#0f63a7;}.cls-77{fill:#0f62a6;}.cls-78{fill:#1061a5;}.cls-79{fill:#1060a4;}.cls-80{fill:#105fa3;}.cls-81{fill:#105ea2;}.cls-82{fill:#105da1;}.cls-83{fill:#115ca0;}.cls-84{fill:#115b9f;}.cls-85{fill:#115a9e;}.cls-86{fill:#11599d;}.cls-87{fill:#11589c;}.cls-88{fill:#12579b;}.cls-89{fill:#12569a;}.cls-90{fill:#125599;}.cls-91{fill:#125499;}.cls-92{fill:#125398;}.cls-93{fill:#135297;}.cls-94{fill:#135196;}.cls-95{fill:#135095;}.cls-96{fill:#134f94;}.cls-97{fill:#134e93;}.cls-98{fill:#144d92;}.cls-99{opacity:0.5;}.cls-100{clip-path:url(#clip-path-2);}</style><clipPath id="clip-path" transform="translate(-0.21 0.44)"><path class="cls-1" d="M1919.21,828.56s-220,100-422,100c-261,0-541-142-934.87-140-243.15,1.23-562.1,140-562.1,140V-.44h1919Z"/></clipPath><clipPath id="clip-path-2" transform="translate(-0.21 0.44)"><path class="cls-1" d="M1923.56,875.62s-220,100-422,100c-261,0-541-142-934.86-140-243.16,1.23-562.11,140-562.11,140v-929h1919Z"/></clipPath></defs><g class="cls-2"><polygon class="cls-3" points="0 887.81 17.56 929 0 929 0 887.81"/><polygon class="cls-4" points="0 830.7 41.91 929 17.56 929 0 887.81 0 830.7"/><polygon class="cls-5" points="0 773.59 66.25 929 41.91 929 0 830.7 0 773.59"/><polygon class="cls-6" points="0 716.48 90.6 929 66.25 929 0 773.59 0 716.48"/><polygon class="cls-7" points="0 659.37 114.95 929 90.6 929 0 716.48 0 659.37"/><polygon class="cls-8" points="0 602.25 139.3 929 114.95 929 0 659.37 0 602.25"/><polygon class="cls-9" points="0 545.14 163.64 929 139.3 929 0 602.25 0 545.14"/><polygon class="cls-10" points="0 488.03 187.99 929 163.64 929 0 545.14 0 488.03"/><polygon class="cls-11" points="0 430.92 212.34 929 187.99 929 0 488.03 0 430.92"/><polygon class="cls-12" points="0 373.81 236.69 929 212.34 929 0 430.92 0 373.81"/><polygon class="cls-13" points="0 316.69 261.03 929 236.69 929 0 373.81 0 316.69"/><polygon class="cls-14" points="0 259.58 285.38 929 261.03 929 0 316.69 0 259.58"/><polygon class="cls-15" points="0 202.47 309.73 929 285.38 929 0 259.58 0 202.47"/><polygon class="cls-16" points="0 145.36 334.08 929 309.73 929 0 202.47 0 145.36"/><polygon class="cls-17" points="0 88.25 358.42 929 334.08 929 0 145.36 0 88.25"/><polygon class="cls-18" points="0 31.14 382.77 929 358.42 929 0 88.25 0 31.14"/><polygon class="cls-19" points="11.07 0 407.12 929 382.77 929 0 31.14 0 0 11.07 0"/><polygon class="cls-20" points="35.42 0 431.47 929 407.12 929 11.07 0 35.42 0"/><polygon class="cls-21" points="59.77 0 455.81 929 431.47 929 35.42 0 59.77 0"/><polygon class="cls-22" points="84.12 0 480.16 929 455.81 929 59.77 0 84.12 0"/><polygon class="cls-23" points="108.46 0 504.51 929 480.16 929 84.12 0 108.46 0"/><polygon class="cls-24" points="132.81 0 528.86 929 504.51 929 108.46 0 132.81 0"/><polygon class="cls-25" points="157.16 0 553.2 929 528.86 929 132.81 0 157.16 0"/><polygon class="cls-26" points="181.51 0 577.55 929 553.2 929 157.16 0 181.51 0"/><polygon class="cls-27" points="205.85 0 601.9 929 577.55 929 181.51 0 205.85 0"/><polygon class="cls-28" points="230.2 0 626.25 929 601.9 929 205.85 0 230.2 0"/><polygon class="cls-29" points="254.55 0 650.59 929 626.25 929 230.2 0 254.55 0"/><polygon class="cls-30" points="278.9 0 674.94 929 650.59 929 254.55 0 278.9 0"/><polygon class="cls-31" points="303.24 0 699.29 929 674.94 929 278.9 0 303.24 0"/><polygon class="cls-32" points="327.59 0 723.64 929 699.29 929 303.24 0 327.59 0"/><polygon class="cls-33" points="351.94 0 747.98 929 723.64 929 327.59 0 351.94 0"/><polygon class="cls-34" points="376.29 0 772.33 929 747.98 929 351.94 0 376.29 0"/><polygon class="cls-35" points="400.63 0 796.68 929 772.33 929 376.29 0 400.63 0"/><polygon class="cls-36" points="424.98 0 821.03 929 796.68 929 400.63 0 424.98 0"/><polygon class="cls-37" points="449.33 0 845.37 929 821.03 929 424.98 0 449.33 0"/><polygon class="cls-38" points="473.68 0 869.72 929 845.37 929 449.33 0 473.68 0"/><polygon class="cls-39" points="498.02 0 894.07 929 869.72 929 473.68 0 498.02 0"/><polygon class="cls-40" points="522.37 0 918.42 929 894.07 929 498.02 0 522.37 0"/><polygon class="cls-41" points="546.72 0 942.76 929 918.42 929 522.37 0 546.72 0"/><polygon class="cls-42" points="571.07 0 967.11 929 942.76 929 546.72 0 571.07 0"/><polygon class="cls-43" points="595.41 0 991.46 929 967.11 929 571.07 0 595.41 0"/><polygon class="cls-44" points="619.76 0 1015.81 929 991.46 929 595.41 0 619.76 0"/><polygon class="cls-45" points="644.11 0 1040.15 929 1015.81 929 619.76 0 644.11 0"/><polygon class="cls-46" points="668.46 0 1064.5 929 1040.15 929 644.11 0 668.46 0"/><polygon class="cls-47" points="692.8 0 1088.85 929 1064.5 929 668.46 0 692.8 0"/><polygon class="cls-48" points="717.15 0 1113.2 929 1088.85 929 692.8 0 717.15 0"/><polygon class="cls-49" points="741.5 0 1137.54 929 1113.2 929 717.15 0 741.5 0"/><polygon class="cls-50" points="765.85 0 1161.89 929 1137.54 929 741.5 0 765.85 0"/><polygon class="cls-51" points="790.19 0 1186.24 929 1161.89 929 765.85 0 790.19 0"/><polygon class="cls-52" points="814.54 0 1210.59 929 1186.24 929 790.19 0 814.54 0"/><polygon class="cls-53" points="838.89 0 1234.93 929 1210.59 929 814.54 0 838.89 0"/><polygon class="cls-54" points="863.24 0 1259.28 929 1234.93 929 838.89 0 863.24 0"/><polygon class="cls-55" points="887.58 0 1283.63 929 1259.28 929 863.24 0 887.58 0"/><polygon class="cls-56" points="911.93 0 1307.98 929 1283.63 929 887.58 0 911.93 0"/><polygon class="cls-57" points="936.28 0 1332.32 929 1307.98 929 911.93 0 936.28 0"/><polygon class="cls-58" points="960.63 0 1356.67 929 1332.32 929 936.28 0 960.63 0"/><polygon class="cls-59" points="984.97 0 1381.02 929 1356.67 929 960.63 0 984.97 0"/><polygon class="cls-60" points="1009.32 0 1405.37 929 1381.02 929 984.97 0 1009.32 0"/><polygon class="cls-61" points="1033.67 0 1429.71 929 1405.37 929 1009.32 0 1033.67 0"/><polygon class="cls-62" points="1058.02 0 1454.06 929 1429.71 929 1033.67 0 1058.02 0"/><polygon class="cls-63" points="1082.36 0 1478.41 929 1454.06 929 1058.02 0 1082.36 0"/><polygon class="cls-64" points="1106.71 0 1502.76 929 1478.41 929 1082.36 0 1106.71 0"/><polygon class="cls-65" points="1131.06 0 1527.1 929 1502.76 929 1106.71 0 1131.06 0"/><polygon class="cls-66" points="1155.41 0 1551.45 929 1527.1 929 1131.06 0 1155.41 0"/><polygon class="cls-67" points="1179.75 0 1575.8 929 1551.45 929 1155.41 0 1179.75 0"/><polygon class="cls-68" points="1204.1 0 1600.15 929 1575.8 929 1179.75 0 1204.1 0"/><polygon class="cls-69" points="1228.45 0 1624.49 929 1600.15 929 1204.1 0 1228.45 0"/><polygon class="cls-70" points="1252.8 0 1648.84 929 1624.49 929 1228.45 0 1252.8 0"/><polygon class="cls-71" points="1277.14 0 1673.19 929 1648.84 929 1252.8 0 1277.14 0"/><polygon class="cls-72" points="1301.49 0 1697.54 929 1673.19 929 1277.14 0 1301.49 0"/><polygon class="cls-73" points="1325.84 0 1719.15 922.59 1704.1 929 1697.54 929 1301.49 0 1325.84 0"/><polygon class="cls-74" points="1350.19 0 1739.75 913.8 1719.15 922.59 1325.84 0 1350.19 0"/><polygon class="cls-75" points="1374.53 0 1760.36 905.02 1739.75 913.8 1350.19 0 1374.53 0"/><polygon class="cls-76" points="1398.88 0 1780.96 896.24 1760.36 905.02 1374.53 0 1398.88 0"/><polygon class="cls-77" points="1423.23 0 1801.56 887.45 1780.96 896.24 1398.88 0 1423.23 0"/><polygon class="cls-78" points="1447.58 0 1822.16 878.67 1801.56 887.45 1423.23 0 1447.58 0"/><polygon class="cls-79" points="1471.92 0 1842.77 869.88 1822.16 878.67 1447.58 0 1471.92 0"/><polygon class="cls-80" points="1496.27 0 1863.37 861.1 1842.77 869.88 1471.92 0 1496.27 0"/><polygon class="cls-81" points="1520.62 0 1883.97 852.32 1863.37 861.1 1496.27 0 1520.62 0"/><polygon class="cls-82" points="1544.97 0 1904.58 843.53 1883.97 852.32 1520.62 0 1544.97 0"/><polygon class="cls-83" points="1569.31 0 1919 820.26 1919 837.38 1904.58 843.53 1544.97 0 1569.31 0"/><polygon class="cls-84" points="1593.66 0 1919 763.14 1919 820.26 1569.31 0 1593.66 0"/><polygon class="cls-85" points="1618.01 0 1919 706.03 1919 763.14 1593.66 0 1618.01 0"/><polygon class="cls-86" points="1642.36 0 1919 648.92 1919 706.03 1618.01 0 1642.36 0"/><polygon class="cls-87" points="1666.7 0 1919 591.81 1919 648.92 1642.36 0 1666.7 0"/><polygon class="cls-88" points="1691.05 0 1919 534.7 1919 591.81 1666.7 0 1691.05 0"/><polygon class="cls-89" points="1715.4 0 1919 477.59 1919 534.7 1691.05 0 1715.4 0"/><polygon class="cls-90" points="1739.75 0 1919 420.47 1919 477.59 1715.4 0 1739.75 0"/><polygon class="cls-91" points="1764.09 0 1919 363.36 1919 420.47 1739.75 0 1764.09 0"/><polygon class="cls-92" points="1788.44 0 1919 306.25 1919 363.36 1764.09 0 1788.44 0"/><polygon class="cls-93" points="1812.79 0 1919 249.14 1919 306.25 1788.44 0 1812.79 0"/><polygon class="cls-94" points="1837.14 0 1919 192.03 1919 249.14 1812.79 0 1837.14 0"/><polygon class="cls-95" points="1861.48 0 1919 134.91 1919 192.03 1837.14 0 1861.48 0"/><polygon class="cls-96" points="1885.83 0 1919 77.8 1919 134.91 1861.48 0 1885.83 0"/><polygon class="cls-97" points="1910.18 0 1919 20.69 1919 77.8 1885.83 0 1910.18 0"/><polygon class="cls-98" points="1919 20.69 1910.18 0 1919 0 1919 20.69"/></g><g class="cls-99"><g class="cls-100"><polygon class="cls-3" points="4.35 934.87 21.91 976.06 4.35 976.06 4.35 934.87"/><polygon class="cls-4" points="4.35 877.76 46.26 976.06 21.91 976.06 4.35 934.87 4.35 877.76"/><polygon class="cls-5" points="4.35 820.65 70.61 976.06 46.26 976.06 4.35 877.76 4.35 820.65"/><polygon class="cls-6" points="4.35 763.54 94.95 976.06 70.61 976.06 4.35 820.65 4.35 763.54"/><polygon class="cls-7" points="4.35 706.42 119.3 976.06 94.95 976.06 4.35 763.54 4.35 706.42"/><polygon class="cls-8" points="4.35 649.31 143.65 976.06 119.3 976.06 4.35 706.42 4.35 649.31"/><polygon class="cls-9" points="4.35 592.2 168 976.06 143.65 976.06 4.35 649.31 4.35 592.2"/><polygon class="cls-10" points="4.35 535.09 192.34 976.06 168 976.06 4.35 592.2 4.35 535.09"/><polygon class="cls-11" points="4.35 477.98 216.69 976.06 192.34 976.06 4.35 535.09 4.35 477.98"/><polygon class="cls-12" points="4.35 420.87 241.04 976.06 216.69 976.06 4.35 477.98 4.35 420.87"/><polygon class="cls-13" points="4.35 363.75 265.39 976.06 241.04 976.06 4.35 420.87 4.35 363.75"/><polygon class="cls-14" points="4.35 306.64 289.73 976.06 265.39 976.06 4.35 363.75 4.35 306.64"/><polygon class="cls-15" points="4.35 249.53 314.08 976.06 289.73 976.06 4.35 306.64 4.35 249.53"/><polygon class="cls-16" points="4.35 192.42 338.43 976.06 314.08 976.06 4.35 249.53 4.35 192.42"/><polygon class="cls-17" points="4.35 135.31 362.78 976.06 338.43 976.06 4.35 192.42 4.35 135.31"/><polygon class="cls-18" points="4.35 78.19 387.12 976.06 362.78 976.06 4.35 135.31 4.35 78.19"/><polygon class="cls-19" points="15.43 47.06 411.47 976.06 387.12 976.06 4.35 78.19 4.35 47.06 15.43 47.06"/><polygon class="cls-20" points="39.77 47.06 435.82 976.06 411.47 976.06 15.43 47.06 39.77 47.06"/><polygon class="cls-21" points="64.12 47.06 460.17 976.06 435.82 976.06 39.77 47.06 64.12 47.06"/><polygon class="cls-22" points="88.47 47.06 484.51 976.06 460.17 976.06 64.12 47.06 88.47 47.06"/><polygon class="cls-23" points="112.82 47.06 508.86 976.06 484.51 976.06 88.47 47.06 112.82 47.06"/><polygon class="cls-24" points="137.16 47.06 533.21 976.06 508.86 976.06 112.82 47.06 137.16 47.06"/><polygon class="cls-25" points="161.51 47.06 557.56 976.06 533.21 976.06 137.16 47.06 161.51 47.06"/><polygon class="cls-26" points="185.86 47.06 581.9 976.06 557.56 976.06 161.51 47.06 185.86 47.06"/><polygon class="cls-27" points="210.21 47.06 606.25 976.06 581.9 976.06 185.86 47.06 210.21 47.06"/><polygon class="cls-28" points="234.56 47.06 630.6 976.06 606.25 976.06 210.21 47.06 234.56 47.06"/><polygon class="cls-29" points="258.9 47.06 654.95 976.06 630.6 976.06 234.56 47.06 258.9 47.06"/><polygon class="cls-30" points="283.25 47.06 679.29 976.06 654.95 976.06 258.9 47.06 283.25 47.06"/><polygon class="cls-31" points="307.6 47.06 703.64 976.06 679.29 976.06 283.25 47.06 307.6 47.06"/><polygon class="cls-32" points="331.94 47.06 727.99 976.06 703.64 976.06 307.6 47.06 331.94 47.06"/><polygon class="cls-33" points="356.29 47.06 752.34 976.06 727.99 976.06 331.94 47.06 356.29 47.06"/><polygon class="cls-34" points="380.64 47.06 776.68 976.06 752.34 976.06 356.29 47.06 380.64 47.06"/><polygon class="cls-35" points="404.99 47.06 801.03 976.06 776.68 976.06 380.64 47.06 404.99 47.06"/><polygon class="cls-36" points="429.33 47.06 825.38 976.06 801.03 976.06 404.99 47.06 429.33 47.06"/><polygon class="cls-37" points="453.68 47.06 849.73 976.06 825.38 976.06 429.33 47.06 453.68 47.06"/><polygon class="cls-38" points="478.03 47.06 874.07 976.06 849.73 976.06 453.68 47.06 478.03 47.06"/><polygon class="cls-39" points="502.38 47.06 898.42 976.06 874.07 976.06 478.03 47.06 502.38 47.06"/><polygon class="cls-40" points="526.73 47.06 922.77 976.06 898.42 976.06 502.38 47.06 526.73 47.06"/><polygon class="cls-41" points="551.07 47.06 947.12 976.06 922.77 976.06 526.73 47.06 551.07 47.06"/><polygon class="cls-42" points="575.42 47.06 971.46 976.06 947.12 976.06 551.07 47.06 575.42 47.06"/><polygon class="cls-43" points="599.77 47.06 995.81 976.06 971.46 976.06 575.42 47.06 599.77 47.06"/><polygon class="cls-44" points="624.12 47.06 1020.16 976.06 995.81 976.06 599.77 47.06 624.12 47.06"/><polygon class="cls-45" points="648.46 47.06 1044.51 976.06 1020.16 976.06 624.12 47.06 648.46 47.06"/><polygon class="cls-46" points="672.81 47.06 1068.85 976.06 1044.51 976.06 648.46 47.06 672.81 47.06"/><polygon class="cls-47" points="697.16 47.06 1093.2 976.06 1068.85 976.06 672.81 47.06 697.16 47.06"/><polygon class="cls-48" points="721.5 47.06 1117.55 976.06 1093.2 976.06 697.16 47.06 721.5 47.06"/><polygon class="cls-49" points="745.85 47.06 1141.9 976.06 1117.55 976.06 721.5 47.06 745.85 47.06"/><polygon class="cls-50" points="770.2 47.06 1166.24 976.06 1141.9 976.06 745.85 47.06 770.2 47.06"/><polygon class="cls-51" points="794.55 47.06 1190.59 976.06 1166.24 976.06 770.2 47.06 794.55 47.06"/><polygon class="cls-52" points="818.89 47.06 1214.94 976.06 1190.59 976.06 794.55 47.06 818.89 47.06"/><polygon class="cls-53" points="843.24 47.06 1239.29 976.06 1214.94 976.06 818.89 47.06 843.24 47.06"/><polygon class="cls-54" points="867.59 47.06 1263.63 976.06 1239.29 976.06 843.24 47.06 867.59 47.06"/><polygon class="cls-55" points="891.94 47.06 1287.98 976.06 1263.63 976.06 867.59 47.06 891.94 47.06"/><polygon class="cls-56" points="916.28 47.06 1312.33 976.06 1287.98 976.06 891.94 47.06 916.28 47.06"/><polygon class="cls-57" points="940.63 47.06 1336.68 976.06 1312.33 976.06 916.28 47.06 940.63 47.06"/><polygon class="cls-58" points="964.98 47.06 1361.02 976.06 1336.68 976.06 940.63 47.06 964.98 47.06"/><polygon class="cls-59" points="989.33 47.06 1385.37 976.06 1361.02 976.06 964.98 47.06 989.33 47.06"/><polygon class="cls-60" points="1013.67 47.06 1409.72 976.06 1385.37 976.06 989.33 47.06 1013.67 47.06"/><polygon class="cls-61" points="1038.02 47.06 1434.07 976.06 1409.72 976.06 1013.67 47.06 1038.02 47.06"/><polygon class="cls-62" points="1062.37 47.06 1458.41 976.06 1434.07 976.06 1038.02 47.06 1062.37 47.06"/><polygon class="cls-63" points="1086.72 47.06 1482.76 976.06 1458.41 976.06 1062.37 47.06 1086.72 47.06"/><polygon class="cls-64" points="1111.07 47.06 1507.11 976.06 1482.76 976.06 1086.72 47.06 1111.07 47.06"/><polygon class="cls-65" points="1135.41 47.06 1531.46 976.06 1507.11 976.06 1111.07 47.06 1135.41 47.06"/><polygon class="cls-66" points="1159.76 47.06 1555.8 976.06 1531.46 976.06 1135.41 47.06 1159.76 47.06"/><polygon class="cls-67" points="1184.11 47.06 1580.15 976.06 1555.8 976.06 1159.76 47.06 1184.11 47.06"/><polygon class="cls-68" points="1208.45 47.06 1604.5 976.06 1580.15 976.06 1184.11 47.06 1208.45 47.06"/><polygon class="cls-69" points="1232.8 47.06 1628.85 976.06 1604.5 976.06 1208.45 47.06 1232.8 47.06"/><polygon class="cls-70" points="1257.15 47.06 1653.19 976.06 1628.85 976.06 1232.8 47.06 1257.15 47.06"/><polygon class="cls-71" points="1281.5 47.06 1677.54 976.06 1653.19 976.06 1257.15 47.06 1281.5 47.06"/><polygon class="cls-72" points="1305.85 47.06 1701.89 976.06 1677.54 976.06 1281.5 47.06 1305.85 47.06"/><polygon class="cls-73" points="1330.19 47.06 1723.5 969.64 1708.45 976.06 1701.89 976.06 1305.85 47.06 1330.19 47.06"/><polygon class="cls-74" points="1354.54 47.06 1744.11 960.86 1723.5 969.64 1330.19 47.06 1354.54 47.06"/><polygon class="cls-75" points="1378.89 47.06 1764.71 952.08 1744.11 960.86 1354.54 47.06 1378.89 47.06"/><polygon class="cls-76" points="1403.23 47.06 1785.31 943.29 1764.71 952.08 1378.89 47.06 1403.23 47.06"/><polygon class="cls-77" points="1427.58 47.06 1805.91 934.51 1785.31 943.29 1403.23 47.06 1427.58 47.06"/><polygon class="cls-78" points="1451.93 47.06 1826.52 925.73 1805.91 934.51 1427.58 47.06 1451.93 47.06"/><polygon class="cls-79" points="1476.28 47.06 1847.12 916.94 1826.52 925.73 1451.93 47.06 1476.28 47.06"/><polygon class="cls-80" points="1500.63 47.06 1867.72 908.16 1847.12 916.94 1476.28 47.06 1500.63 47.06"/><polygon class="cls-81" points="1524.97 47.06 1888.33 899.38 1867.72 908.16 1500.63 47.06 1524.97 47.06"/><polygon class="cls-82" points="1549.32 47.06 1908.93 890.59 1888.33 899.38 1524.97 47.06 1549.32 47.06"/><polygon class="cls-83" points="1573.67 47.06 1923.35 867.32 1923.35 884.44 1908.93 890.59 1549.32 47.06 1573.67 47.06"/><polygon class="cls-84" points="1598.02 47.06 1923.35 810.2 1923.35 867.32 1573.67 47.06 1598.02 47.06"/><polygon class="cls-85" points="1622.36 47.06 1923.35 753.09 1923.35 810.2 1598.02 47.06 1622.36 47.06"/><polygon class="cls-86" points="1646.71 47.06 1923.35 695.98 1923.35 753.09 1622.36 47.06 1646.71 47.06"/><polygon class="cls-87" points="1671.06 47.06 1923.35 638.87 1923.35 695.98 1646.71 47.06 1671.06 47.06"/><polygon class="cls-88" points="1695.4 47.06 1923.35 581.76 1923.35 638.87 1671.06 47.06 1695.4 47.06"/><polygon class="cls-89" points="1719.75 47.06 1923.35 524.64 1923.35 581.76 1695.4 47.06 1719.75 47.06"/><polygon class="cls-90" points="1744.1 47.06 1923.35 467.53 1923.35 524.64 1719.75 47.06 1744.1 47.06"/><polygon class="cls-91" points="1768.45 47.06 1923.35 410.42 1923.35 467.53 1744.1 47.06 1768.45 47.06"/><polygon class="cls-92" points="1792.8 47.06 1923.35 353.31 1923.35 410.42 1768.45 47.06 1792.8 47.06"/><polygon class="cls-93" points="1817.14 47.06 1923.35 296.2 1923.35 353.31 1792.8 47.06 1817.14 47.06"/><polygon class="cls-94" points="1841.49 47.06 1923.35 239.09 1923.35 296.2 1817.14 47.06 1841.49 47.06"/><polygon class="cls-95" points="1865.84 47.06 1923.35 181.97 1923.35 239.09 1841.49 47.06 1865.84 47.06"/><polygon class="cls-96" points="1890.18 47.06 1923.35 124.86 1923.35 181.97 1865.84 47.06 1890.18 47.06"/><polygon class="cls-97" points="1914.53 47.06 1923.35 67.75 1923.35 124.86 1890.18 47.06 1914.53 47.06"/><polygon class="cls-98" points="1923.35 67.75 1914.53 47.06 1923.35 47.06 1923.35 67.75"/></g></g></svg>