<svg xmlns="http://www.w3.org/2000/svg" viewBox="0 0 245.04 77.48"><defs><style>.cls-1{fill:#f5f5f5;}</style></defs><g id="Layer_2" data-name="Layer 2"><g id="Layer_1-2" data-name="Layer 1"><path class="cls-1" d="M38,38.56a2.27,2.27,0,0,1,.73-.55,16.92,16.92,0,0,0,5.11-11.88,17.09,17.09,0,0,0-8-14.25,22,22,0,0,0-6-2.56h0a15,15,0,0,0-4-.55H24.49a20.19,20.19,0,0,0-9,2C9.32,13.7,4.93,19.55,4.93,26.31V43.85h0v7.5a23.31,23.31,0,0,0,.73,4.93c0,.18,0,.18.19.37a10.17,10.17,0,0,0,.91,2c.18.36.37.54.55.91A23.91,23.91,0,0,0,9.87,63l.18.18a33.11,33.11,0,0,0,4,3.11c.37.18.91.55,1.28.73a20.73,20.73,0,0,0,9,2H43.85V51.53a16,16,0,0,0-2.37-8.22A13.25,13.25,0,0,0,38,38.56ZM15.71,26.13c0-4.2,3.66-7.49,8.23-7.67h.36c4.75,0,8.59,3.47,8.59,7.67a7.56,7.56,0,0,1-4.57,6.76,6.39,6.39,0,0,1-2,.73,7.61,7.61,0,0,1-2,.18H15.71ZM32.89,58.84H23a3.38,3.38,0,0,1-1.46-.37,11.3,11.3,0,0,1-2.19-.91,7.76,7.76,0,0,1-2.19-2h0a7.28,7.28,0,0,1-1.47-4.2,7.45,7.45,0,0,1,2-4.94,9.07,9.07,0,0,1,4.21-2.56,10.8,10.8,0,0,1,2.37-.36,7.61,7.61,0,0,1,2,.18,7.78,7.78,0,0,1,6.58,7.49Z"/><polygon class="cls-1" points="50.43 69.25 50.43 77.48 40.75 77.48 40.75 75.83 48.61 75.83 48.61 69.25 50.43 69.25"/><polygon class="cls-1" points="2.92 8.04 2.92 0 12.43 0 12.43 1.65 4.57 1.65 4.57 8.04 2.92 8.04"/><path class="cls-1" d="M0,62.49v0Z"/><path class="cls-1" d="M106.71,49.52a11.59,11.59,0,0,1-.55,3.65,9.54,9.54,0,0,1-1.46,3.11,9.24,9.24,0,0,1-2.19,2.38,9.37,9.37,0,0,1-2.92,1.64,19.69,19.69,0,0,1-3.48,1.1,30.29,30.29,0,0,1-4.2.36H80.77a2.19,2.19,0,0,1-2.2-2.37V21.56a2,2,0,0,1,.73-1.83,2.12,2.12,0,0,1,1.47-.54h9.68a19.86,19.86,0,0,1,6.21.73,9.43,9.43,0,0,1,4,2.19,7.86,7.86,0,0,1,2.38,3.47,12,12,0,0,1,.73,4.57,13.61,13.61,0,0,1-.37,2.92,6.3,6.3,0,0,1-1.09,2.56,9.73,9.73,0,0,1-1.83,2,10,10,0,0,1-2.38,1.46,8.28,8.28,0,0,1,3.29,1.28,7.38,7.38,0,0,1,2.56,2.2,17.57,17.57,0,0,1,1.83,3.1A6.68,6.68,0,0,1,106.71,49.52Zm-8.59-19a11.34,11.34,0,0,0-.36-2.75,8.75,8.75,0,0,0-1.28-2.19A5,5,0,0,0,94.1,24.3a10.75,10.75,0,0,0-3.83-.55h-6V37.46h6.39a9.1,9.1,0,0,0,3.47-.55,6.45,6.45,0,0,0,2.2-1.46,6.94,6.94,0,0,0,1.28-2.19A5,5,0,0,0,98.12,30.52Zm2.56,19.36a8.73,8.73,0,0,0-.55-3.28,4.65,4.65,0,0,0-1.82-2.38,7.28,7.28,0,0,0-2.93-1.46A14,14,0,0,0,91,42.21H84.24v15h8.22a9,9,0,0,0,3.29-.54,11.78,11.78,0,0,0,2.56-1.28,4.94,4.94,0,0,0,1.64-2.2A7.12,7.12,0,0,0,100.68,49.88Z"/><path class="cls-1" d="M146.36,59.75c.19.55.19.92.37,1.1,0,.36,0,.55-.18.73s-.55.18-.92.36-.91,0-1.64,0h-1.65a1.38,1.38,0,0,1-.91-.18c-.18,0-.36-.18-.55-.36a.67.67,0,0,0-.18-.55l-3.65-10.42H119.32l-3.47,10.24c0,.18-.18.36-.18.54a2,2,0,0,1-1.47.55h-3.1a1.43,1.43,0,0,1-.92-.36c-.18-.19-.18-.37-.18-.73a2.48,2.48,0,0,1,.37-1.1L124.62,20.1c0-.18.18-.37.37-.55s.36-.18.54-.36a6.41,6.41,0,0,1,1.1-.19h3.47a6.21,6.21,0,0,1,1.1.19,1,1,0,0,1,.73.36c.18.18.18.37.36.55Zm-18.27-34.9h0l-7.31,21.2h14.8Z"/><path class="cls-1" d="M181.63,49.52a11.59,11.59,0,0,1-.55,3.65,9.54,9.54,0,0,1-1.46,3.11,9.24,9.24,0,0,1-2.19,2.38,9.37,9.37,0,0,1-2.92,1.64A19.69,19.69,0,0,1,171,61.4a30.43,30.43,0,0,1-4.2.36H155.68a2.19,2.19,0,0,1-2.19-2.37V21.56a1.93,1.93,0,0,1,.73-1.83,2.11,2.11,0,0,1,1.46-.54h9.69a19.86,19.86,0,0,1,6.21.73,9.43,9.43,0,0,1,4,2.19A7.86,7.86,0,0,1,178,25.58a12,12,0,0,1,.73,4.57,13.61,13.61,0,0,1-.37,2.92,6.44,6.44,0,0,1-1.09,2.56,9.73,9.73,0,0,1-1.83,2A10,10,0,0,1,173,39.1a8.28,8.28,0,0,1,3.29,1.28,7.38,7.38,0,0,1,2.56,2.2,17.57,17.57,0,0,1,1.83,3.1A8.5,8.5,0,0,1,181.63,49.52Zm-8.59-19a11.34,11.34,0,0,0-.36-2.75,8.75,8.75,0,0,0-1.28-2.19A5,5,0,0,0,169,24.3a10.75,10.75,0,0,0-3.83-.55h-6V37.46h6.39a9.1,9.1,0,0,0,3.47-.55,6.45,6.45,0,0,0,2.2-1.46,7.14,7.14,0,0,0,1.28-2.19A7.46,7.46,0,0,0,173,30.52Zm2.56,19.36a8.73,8.73,0,0,0-.55-3.28,4.65,4.65,0,0,0-1.82-2.38,7.28,7.28,0,0,0-2.93-1.46,14.08,14.08,0,0,0-4.38-.55h-6.76v15h8.22a9,9,0,0,0,3.29-.54,11.78,11.78,0,0,0,2.56-1.28,4.94,4.94,0,0,0,1.64-2.2A7.12,7.12,0,0,0,175.6,49.88Z"/><path class="cls-1" d="M213.79,59.39v1.09c0,.37-.18.55-.18.73-.18.19-.18.37-.37.37s-.36.18-.54.18H192.23A2.19,2.19,0,0,1,190,59.39V21.56a1.93,1.93,0,0,1,.73-1.83,2.08,2.08,0,0,1,1.46-.54h20.1a.68.68,0,0,1,.55.18c.18,0,.18.18.36.36,0,.19.19.37.19.74v2.19c0,.36-.19.55-.19.73a.39.39,0,0,1-.36.36c-.18,0-.37.19-.55.19H195.7V37.28H210a.67.67,0,0,1,.55.18l.37.36c.18.19.18.37.18.74v2.19c0,.36-.18.55-.18.73-.18.18-.18.36-.37.36s-.36.19-.55.19H195.7V57.19h16.81a.65.65,0,0,1,.55.19c.18,0,.18.18.37.36s.18.37.18.73A1.41,1.41,0,0,1,213.79,59.39Z"/><path class="cls-1" d="M245,59.2v1.1c0,.37-.18.55-.18.73-.19.18-.19.37-.37.55a.68.68,0,0,1-.55.18H225.12a2.19,2.19,0,0,1-2.19-2.37V20.1a.68.68,0,0,1,.18-.55c0-.18.18-.18.55-.36a7.68,7.68,0,0,1,.91-.19h2.56a7.26,7.26,0,0,1,.91.19c.19,0,.37.18.55.36,0,.18.19.37.19.55V56.83h15.16a.68.68,0,0,1,.55.18l.37.37c.18.18.18.36.18.73Z"/></g></g></svg>