<svg xmlns="http://www.w3.org/2000/svg" xmlns:xlink="http://www.w3.org/1999/xlink" viewBox="0 0 56.38 56.38"><defs><style>.cls-1{fill:none;}.cls-2{clip-path:url(#clip-path);}.cls-3{fill:#00b1ef;}.cls-4{fill:#00b0ee;}.cls-5{fill:#00afed;}.cls-6{fill:#01aeec;}.cls-7{fill:#01adeb;}.cls-8{fill:#01acea;}.cls-9{fill:#01abe9;}.cls-10{fill:#01aae8;}.cls-11{fill:#02a9e7;}.cls-12{fill:#02a8e7;}.cls-13{fill:#02a7e6;}.cls-14{fill:#02a6e5;}.cls-15{fill:#02a5e4;}.cls-16{fill:#03a4e3;}.cls-17{fill:#03a3e2;}.cls-18{fill:#03a2e1;}.cls-19{fill:#03a1e0;}.cls-20{fill:#03a0df;}.cls-21{fill:#049fde;}.cls-22{fill:#049edd;}.cls-23{fill:#049ddc;}.cls-24{fill:#049cdb;}.cls-25{fill:#049bda;}.cls-26{fill:#059ad9;}.cls-27{fill:#0599d8;}.cls-28{fill:#0598d8;}.cls-29{fill:#0597d7;}.cls-30{fill:#0596d6;}.cls-31{fill:#0695d5;}.cls-32{fill:#0694d4;}.cls-33{fill:#0693d3;}.cls-34{fill:#0692d2;}.cls-35{fill:#0691d1;}.cls-36{fill:#0790d0;}.cls-37{fill:#078fcf;}.cls-38{fill:#078ece;}.cls-39{fill:#078dcd;}.cls-40{fill:#078ccc;}.cls-41{fill:#088bcb;}.cls-42{fill:#088aca;}.cls-43{fill:#0889c9;}.cls-44{fill:#0888c8;}.cls-45{fill:#0887c8;}.cls-46{fill:#0986c7;}.cls-47{fill:#0985c6;}.cls-48{fill:#0984c5;}.cls-49{fill:#0983c4;}.cls-50{fill:#0982c3;}.cls-51{fill:#0a81c2;}.cls-52{fill:#0a80c1;}.cls-53{fill:#0a7fc0;}.cls-54{fill:#0a7ebf;}.cls-55{fill:#0a7dbe;}.cls-56{fill:#0b7cbd;}.cls-57{fill:#0b7bbc;}.cls-58{fill:#0b7abb;}.cls-59{fill:#0b79ba;}.cls-60{fill:#0b78b9;}.cls-61{fill:#0c77b9;}.cls-62{fill:#0c75b8;}.cls-63{fill:#0c74b7;}.cls-64{fill:#0c73b6;}.cls-65{fill:#0c72b5;}.cls-66{fill:#0c71b4;}.cls-67{fill:#0d70b3;}.cls-68{fill:#0d6fb2;}.cls-69{fill:#0d6eb1;}.cls-70{fill:#0d6db0;}.cls-71{fill:#0d6caf;}.cls-72{fill:#0e6bae;}.cls-73{fill:#0e6aad;}.cls-74{fill:#0e69ac;}.cls-75{fill:#0e68ab;}.cls-76{fill:#0e67aa;}.cls-77{fill:#0f66a9;}.cls-78{fill:#0f65a9;}.cls-79{fill:#0f64a8;}.cls-80{fill:#0f63a7;}.cls-81{fill:#0f62a6;}.cls-82{fill:#1061a5;}.cls-83{fill:#1060a4;}.cls-84{fill:#105fa3;}.cls-85{fill:#105ea2;}.cls-86{fill:#105da1;}.cls-87{fill:#115ca0;}.cls-88{fill:#115b9f;}.cls-89{fill:#115a9e;}.cls-90{fill:#11599d;}.cls-91{fill:#11589c;}.cls-92{fill:#12579b;}.cls-93{fill:#12569a;}.cls-94{fill:#125599;}.cls-95{fill:#125499;}.cls-96{fill:#125398;}.cls-97{fill:#135297;}.cls-98{fill:#135196;}.cls-99{fill:#135095;}.cls-100{fill:#134f94;}.cls-101{fill:#134e93;}.cls-102{fill:#144d92;}.cls-103{fill:#144c91;}.cls-104{fill:#144b90;}.cls-105{fill:#144a8f;}.cls-106{fill:#14498e;}.cls-107{fill:#15488d;}.cls-108{fill:#15478c;}.cls-109{fill:#15468b;}.cls-110{fill:#15458a;}.cls-111{fill:#15448a;}.cls-112{fill:#164389;}.cls-113{fill:#164288;}.cls-114{fill:#164187;}.cls-115{fill:#164086;}.cls-116{fill:#163f85;}.cls-117{fill:#173e84;}.cls-118{fill:#173d83;}.cls-119{fill:#173c82;}.cls-120{fill:#fff;}</style><clipPath id="clip-path" transform="translate(0 0)"><circle class="cls-1" cx="28.19" cy="28.19" r="28.19"/></clipPath></defs><g id="Layer_2" data-name="Layer 2"><g id="Layer_1-2" data-name="Layer 1"><g class="cls-2"><path class="cls-3" d="M0,0V0Z" transform="translate(0 0)"/><rect class="cls-3" width="0.48" height="56.38"/><rect class="cls-4" x="0.48" width="0.48" height="56.38"/><rect class="cls-5" x="0.96" width="0.48" height="56.38"/><rect class="cls-6" x="1.44" width="0.48" height="56.38"/><rect class="cls-7" x="1.93" width="0.48" height="56.38"/><rect class="cls-8" x="2.41" width="0.48" height="56.38"/><rect class="cls-9" x="2.89" width="0.48" height="56.38"/><rect class="cls-10" x="3.37" width="0.48" height="56.38"/><rect class="cls-11" x="3.85" width="0.48" height="56.38"/><rect class="cls-12" x="4.33" width="0.48" height="56.38"/><rect class="cls-13" x="4.81" width="0.48" height="56.38"/><rect class="cls-14" x="5.3" width="0.48" height="56.38"/><rect class="cls-15" x="5.78" width="0.48" height="56.38"/><rect class="cls-16" x="6.26" width="0.48" height="56.38"/><rect class="cls-17" x="6.74" width="0.48" height="56.38"/><rect class="cls-18" x="7.22" width="0.48" height="56.38"/><rect class="cls-19" x="7.7" width="0.48" height="56.38"/><rect class="cls-20" x="8.18" width="0.48" height="56.38"/><rect class="cls-21" x="8.67" width="0.48" height="56.38"/><rect class="cls-22" x="9.15" width="0.48" height="56.38"/><rect class="cls-23" x="9.63" width="0.48" height="56.38"/><rect class="cls-24" x="10.11" width="0.48" height="56.38"/><rect class="cls-25" x="10.59" width="0.48" height="56.38"/><rect class="cls-26" x="11.07" width="0.48" height="56.38"/><rect class="cls-27" x="11.55" width="0.48" height="56.38"/><rect class="cls-28" x="12.04" width="0.48" height="56.38"/><rect class="cls-29" x="12.52" width="0.48" height="56.38"/><rect class="cls-30" x="13" width="0.48" height="56.38"/><rect class="cls-31" x="13.48" width="0.48" height="56.38"/><rect class="cls-32" x="13.96" width="0.48" height="56.38"/><rect class="cls-33" x="14.44" width="0.48" height="56.38"/><rect class="cls-34" x="14.92" width="0.48" height="56.38"/><rect class="cls-35" x="15.41" width="0.48" height="56.38"/><rect class="cls-36" x="15.89" width="0.48" height="56.38"/><rect class="cls-37" x="16.37" width="0.48" height="56.38"/><rect class="cls-38" x="16.85" width="0.48" height="56.38"/><rect class="cls-39" x="17.33" width="0.48" height="56.38"/><rect class="cls-40" x="17.81" width="0.48" height="56.38"/><rect class="cls-41" x="18.29" width="0.48" height="56.38"/><rect class="cls-42" x="18.78" width="0.48" height="56.38"/><rect class="cls-43" x="19.26" width="0.48" height="56.38"/><rect class="cls-44" x="19.74" width="0.48" height="56.38"/><rect class="cls-45" x="20.22" width="0.48" height="56.38"/><rect class="cls-46" x="20.7" width="0.48" height="56.38"/><rect class="cls-47" x="21.18" width="0.48" height="56.38"/><rect class="cls-48" x="21.66" width="0.48" height="56.38"/><rect class="cls-49" x="22.15" width="0.48" height="56.38"/><rect class="cls-50" x="22.63" width="0.48" height="56.38"/><rect class="cls-51" x="23.11" width="0.48" height="56.38"/><rect class="cls-52" x="23.59" width="0.48" height="56.38"/><rect class="cls-53" x="24.07" width="0.48" height="56.38"/><rect class="cls-54" x="24.55" width="0.48" height="56.38"/><rect class="cls-55" x="25.03" width="0.48" height="56.38"/><rect class="cls-56" x="25.52" width="0.48" height="56.38"/><rect class="cls-57" x="26" width="0.48" height="56.38"/><rect class="cls-58" x="26.48" width="0.48" height="56.38"/><rect class="cls-59" x="26.96" width="0.48" height="56.38"/><rect class="cls-60" x="27.44" width="0.48" height="56.38"/><rect class="cls-61" x="27.92" width="0.48" height="56.38"/><rect class="cls-62" x="28.4" width="0.48" height="56.38"/><rect class="cls-63" x="28.89" width="0.48" height="56.38"/><rect class="cls-64" x="29.37" width="0.48" height="56.38"/><rect class="cls-65" x="29.85" width="0.48" height="56.38"/><rect class="cls-66" x="30.33" width="0.48" height="56.38"/><rect class="cls-67" x="30.81" width="0.48" height="56.38"/><rect class="cls-68" x="31.29" width="0.48" height="56.38"/><rect class="cls-69" x="31.77" width="0.48" height="56.38"/><rect class="cls-70" x="32.26" width="0.48" height="56.38"/><rect class="cls-71" x="32.74" width="0.48" height="56.38"/><rect class="cls-72" x="33.22" width="0.48" height="56.38"/><rect class="cls-73" x="33.7" width="0.48" height="56.38"/><rect class="cls-74" x="34.18" width="0.48" height="56.38"/><rect class="cls-75" x="34.66" width="0.48" height="56.38"/><rect class="cls-76" x="35.14" width="0.48" height="56.38"/><rect class="cls-77" x="35.63" width="0.48" height="56.38"/><rect class="cls-78" x="36.11" width="0.48" height="56.38"/><rect class="cls-79" x="36.59" width="0.48" height="56.38"/><rect class="cls-80" x="37.07" width="0.48" height="56.38"/><rect class="cls-81" x="37.55" width="0.48" height="56.38"/><rect class="cls-82" x="38.03" width="0.48" height="56.38"/><rect class="cls-83" x="38.51" width="0.48" height="56.38"/><rect class="cls-84" x="39" width="0.48" height="56.38"/><rect class="cls-85" x="39.48" width="0.48" height="56.38"/><rect class="cls-86" x="39.96" width="0.48" height="56.38"/><rect class="cls-87" x="40.44" width="0.48" height="56.38"/><rect class="cls-88" x="40.92" width="0.48" height="56.38"/><rect class="cls-89" x="41.4" width="0.48" height="56.38"/><rect class="cls-90" x="41.88" width="0.48" height="56.38"/><rect class="cls-91" x="42.37" width="0.48" height="56.38"/><rect class="cls-92" x="42.85" width="0.48" height="56.38"/><rect class="cls-93" x="43.33" width="0.48" height="56.38"/><rect class="cls-94" x="43.81" width="0.48" height="56.38"/><rect class="cls-95" x="44.29" width="0.48" height="56.38"/><rect class="cls-96" x="44.77" width="0.48" height="56.38"/><rect class="cls-97" x="45.25" width="0.48" height="56.38"/><rect class="cls-98" x="45.74" width="0.48" height="56.38"/><rect class="cls-99" x="46.22" width="0.48" height="56.38"/><rect class="cls-100" x="46.7" width="0.48" height="56.38"/><rect class="cls-101" x="47.18" width="0.48" height="56.38"/><rect class="cls-102" x="47.66" width="0.48" height="56.38"/><rect class="cls-103" x="48.14" width="0.48" height="56.38"/><rect class="cls-104" x="48.62" width="0.48" height="56.38"/><rect class="cls-105" x="49.11" width="0.48" height="56.38"/><rect class="cls-106" x="49.59" width="0.48" height="56.38"/><rect class="cls-107" x="50.07" width="0.48" height="56.38"/><rect class="cls-108" x="50.55" width="0.48" height="56.38"/><rect class="cls-109" x="51.03" width="0.48" height="56.38"/><rect class="cls-110" x="51.51" width="0.48" height="56.38"/><rect class="cls-111" x="51.99" width="0.48" height="56.38"/><rect class="cls-112" x="52.48" width="0.48" height="56.38"/><rect class="cls-113" x="52.96" width="0.48" height="56.38"/><rect class="cls-114" x="53.44" width="0.48" height="56.38"/><rect class="cls-115" x="53.92" width="0.48" height="56.38"/><rect class="cls-116" x="54.4" width="0.48" height="56.38"/><rect class="cls-117" x="54.88" width="0.48" height="56.38"/><rect class="cls-118" x="55.37" width="0.48" height="56.38"/><rect class="cls-119" x="55.85" width="0.48" height="56.38"/><rect class="cls-119" x="56.33" width="0.05" height="56.38"/></g><path class="cls-120" d="M41.57,25.87a2.68,2.68,0,0,1,0,4.64l-10,5.76L21.61,42a2.68,2.68,0,0,1-4-2.32v-23a2.68,2.68,0,0,1,4-2.32l10,5.76Z" transform="translate(0 0)"/></g></g></svg>