<svg xmlns="http://www.w3.org/2000/svg" xmlns:xlink="http://www.w3.org/1999/xlink" viewBox="0 0 66 66"><defs><style>.cls-1{fill:none;}.cls-2{opacity:0.5;}.cls-3{clip-path:url(#clip-path);}.cls-4{fill:#00b1ef;}.cls-5{fill:#00b0ee;}.cls-6{fill:#00afed;}.cls-7{fill:#01aeec;}.cls-8{fill:#01adeb;}.cls-9{fill:#01acea;}.cls-10{fill:#01abe9;}.cls-11{fill:#01aae8;}.cls-12{fill:#02a9e7;}.cls-13{fill:#02a8e7;}.cls-14{fill:#02a7e6;}.cls-15{fill:#02a6e5;}.cls-16{fill:#02a5e4;}.cls-17{fill:#03a4e3;}.cls-18{fill:#03a3e2;}.cls-19{fill:#03a2e1;}.cls-20{fill:#03a1e0;}.cls-21{fill:#03a0df;}.cls-22{fill:#049fde;}.cls-23{fill:#049edd;}.cls-24{fill:#049ddc;}.cls-25{fill:#049cdb;}.cls-26{fill:#049bda;}.cls-27{fill:#059ad9;}.cls-28{fill:#0599d8;}.cls-29{fill:#0598d8;}.cls-30{fill:#0597d7;}.cls-31{fill:#0596d6;}.cls-32{fill:#0695d5;}.cls-33{fill:#0694d4;}.cls-34{fill:#0693d3;}.cls-35{fill:#0692d2;}.cls-36{fill:#0691d1;}.cls-37{fill:#0790d0;}.cls-38{fill:#078fcf;}.cls-39{fill:#078ece;}.cls-40{fill:#078dcd;}.cls-41{fill:#078ccc;}.cls-42{fill:#088bcb;}.cls-43{fill:#088aca;}.cls-44{fill:#0889c9;}.cls-45{fill:#0888c8;}.cls-46{fill:#0887c8;}.cls-47{fill:#0986c7;}.cls-48{fill:#0985c6;}.cls-49{fill:#0984c5;}.cls-50{fill:#0983c4;}.cls-51{fill:#0982c3;}.cls-52{fill:#0a81c2;}.cls-53{fill:#0a80c1;}.cls-54{fill:#0a7fc0;}.cls-55{fill:#0a7ebf;}.cls-56{fill:#0a7dbe;}.cls-57{fill:#0b7cbd;}.cls-58{fill:#0b7bbc;}.cls-59{fill:#0b7abb;}.cls-60{fill:#0b79ba;}.cls-61{fill:#0b78b9;}.cls-62{fill:#0c77b9;}.cls-63{fill:#0c75b8;}.cls-64{fill:#0c74b7;}.cls-65{fill:#0c73b6;}.cls-66{fill:#0c72b5;}.cls-67{fill:#0c71b4;}.cls-68{fill:#0d70b3;}.cls-69{fill:#0d6fb2;}.cls-70{fill:#0d6eb1;}.cls-71{fill:#0d6db0;}.cls-72{fill:#0d6caf;}.cls-73{fill:#0e6bae;}.cls-74{fill:#0e6aad;}.cls-75{fill:#0e69ac;}.cls-76{fill:#0e68ab;}.cls-77{fill:#0e67aa;}.cls-78{fill:#0f66a9;}.cls-79{fill:#0f65a9;}.cls-80{fill:#0f64a8;}.cls-81{fill:#0f63a7;}.cls-82{fill:#0f62a6;}.cls-83{fill:#1061a5;}.cls-84{fill:#1060a4;}.cls-85{fill:#105fa3;}.cls-86{fill:#105ea2;}.cls-87{fill:#105da1;}.cls-88{fill:#115ca0;}.cls-89{fill:#115b9f;}.cls-90{fill:#115a9e;}.cls-91{fill:#11599d;}.cls-92{fill:#11589c;}.cls-93{fill:#12579b;}.cls-94{fill:#12569a;}.cls-95{fill:#125599;}.cls-96{fill:#125499;}.cls-97{fill:#125398;}.cls-98{fill:#135297;}.cls-99{fill:#135196;}.cls-100{fill:#135095;}.cls-101{fill:#134f94;}.cls-102{fill:#134e93;}.cls-103{fill:#144d92;}.cls-104{fill:#144c91;}.cls-105{fill:#144b90;}.cls-106{fill:#144a8f;}.cls-107{fill:#14498e;}.cls-108{fill:#15488d;}.cls-109{fill:#15478c;}.cls-110{fill:#15468b;}.cls-111{fill:#15458a;}.cls-112{fill:#15448a;}.cls-113{fill:#164389;}.cls-114{fill:#164288;}.cls-115{fill:#164187;}.cls-116{fill:#164086;}.cls-117{fill:#163f85;}.cls-118{fill:#173e84;}.cls-119{fill:#173d83;}.cls-120{fill:#173c82;}</style><clipPath id="clip-path" transform="translate(0 0)"><circle class="cls-1" cx="33" cy="33" r="33"/></clipPath></defs><g id="Layer_2" data-name="Layer 2"><g id="Layer_1-2" data-name="Layer 1"><g class="cls-2"><g class="cls-3"><path class="cls-4" d="M0,0V0Z" transform="translate(0 0)"/><rect class="cls-4" width="0.56" height="66"/><rect class="cls-5" x="0.56" width="0.56" height="66"/><rect class="cls-6" x="1.13" width="0.56" height="66"/><rect class="cls-7" x="1.69" width="0.56" height="66"/><rect class="cls-8" x="2.25" width="0.56" height="66"/><rect class="cls-9" x="2.82" width="0.56" height="66"/><rect class="cls-10" x="3.38" width="0.56" height="66"/><rect class="cls-11" x="3.95" width="0.56" height="66"/><rect class="cls-12" x="4.51" width="0.56" height="66"/><rect class="cls-13" x="5.07" width="0.56" height="66"/><rect class="cls-14" x="5.64" width="0.56" height="66"/><rect class="cls-15" x="6.2" width="0.56" height="66"/><rect class="cls-16" x="6.76" width="0.56" height="66"/><rect class="cls-17" x="7.33" width="0.56" height="66"/><rect class="cls-18" x="7.89" width="0.56" height="66"/><rect class="cls-19" x="8.45" width="0.56" height="66"/><rect class="cls-20" x="9.02" width="0.56" height="66"/><rect class="cls-21" x="9.58" width="0.56" height="66"/><rect class="cls-22" x="10.15" width="0.56" height="66"/><rect class="cls-23" x="10.71" width="0.56" height="66"/><rect class="cls-24" x="11.27" width="0.56" height="66"/><rect class="cls-25" x="11.84" width="0.56" height="66"/><rect class="cls-26" x="12.4" width="0.56" height="66"/><rect class="cls-27" x="12.96" width="0.56" height="66"/><rect class="cls-28" x="13.53" width="0.56" height="66"/><rect class="cls-29" x="14.09" width="0.56" height="66"/><rect class="cls-30" x="14.65" width="0.56" height="66"/><rect class="cls-31" x="15.22" width="0.56" height="66"/><rect class="cls-32" x="15.78" width="0.56" height="66"/><rect class="cls-33" x="16.35" width="0.56" height="66"/><rect class="cls-34" x="16.91" width="0.56" height="66"/><rect class="cls-35" x="17.47" width="0.56" height="66"/><rect class="cls-36" x="18.04" width="0.56" height="66"/><rect class="cls-37" x="18.6" width="0.56" height="66"/><rect class="cls-38" x="19.16" width="0.56" height="66"/><rect class="cls-39" x="19.73" width="0.56" height="66"/><rect class="cls-40" x="20.29" width="0.56" height="66"/><rect class="cls-41" x="20.85" width="0.56" height="66"/><rect class="cls-42" x="21.42" width="0.56" height="66"/><rect class="cls-43" x="21.98" width="0.56" height="66"/><rect class="cls-44" x="22.55" width="0.56" height="66"/><rect class="cls-45" x="23.11" width="0.56" height="66"/><rect class="cls-46" x="23.67" width="0.56" height="66"/><rect class="cls-47" x="24.24" width="0.56" height="66"/><rect class="cls-48" x="24.8" width="0.56" height="66"/><rect class="cls-49" x="25.36" width="0.56" height="66"/><rect class="cls-50" x="25.93" width="0.56" height="66"/><rect class="cls-51" x="26.49" width="0.56" height="66"/><rect class="cls-52" x="27.05" width="0.56" height="66"/><rect class="cls-53" x="27.62" width="0.56" height="66"/><rect class="cls-54" x="28.18" width="0.56" height="66"/><rect class="cls-55" x="28.75" width="0.56" height="66"/><rect class="cls-56" x="29.31" width="0.56" height="66"/><rect class="cls-57" x="29.87" width="0.56" height="66"/><rect class="cls-58" x="30.44" width="0.56" height="66"/><rect class="cls-59" x="31" width="0.56" height="66"/><rect class="cls-60" x="31.56" width="0.56" height="66"/><rect class="cls-61" x="32.13" width="0.56" height="66"/><rect class="cls-62" x="32.69" width="0.56" height="66"/><rect class="cls-63" x="33.25" width="0.56" height="66"/><rect class="cls-64" x="33.82" width="0.56" height="66"/><rect class="cls-65" x="34.38" width="0.56" height="66"/><rect class="cls-66" x="34.95" width="0.56" height="66"/><rect class="cls-67" x="35.51" width="0.56" height="66"/><rect class="cls-68" x="36.07" width="0.56" height="66"/><rect class="cls-69" x="36.64" width="0.56" height="66"/><rect class="cls-70" x="37.2" width="0.56" height="66"/><rect class="cls-71" x="37.76" width="0.56" height="66"/><rect class="cls-72" x="38.33" width="0.56" height="66"/><rect class="cls-73" x="38.89" width="0.56" height="66"/><rect class="cls-74" x="39.45" width="0.56" height="66"/><rect class="cls-75" x="40.02" width="0.56" height="66"/><rect class="cls-76" x="40.58" width="0.56" height="66"/><rect class="cls-77" x="41.15" width="0.56" height="66"/><rect class="cls-78" x="41.71" width="0.56" height="66"/><rect class="cls-79" x="42.27" width="0.56" height="66"/><rect class="cls-80" x="42.84" width="0.56" height="66"/><rect class="cls-81" x="43.4" width="0.56" height="66"/><rect class="cls-82" x="43.96" width="0.56" height="66"/><rect class="cls-83" x="44.53" width="0.56" height="66"/><rect class="cls-84" x="45.09" width="0.56" height="66"/><rect class="cls-85" x="45.65" width="0.56" height="66"/><rect class="cls-86" x="46.22" width="0.56" height="66"/><rect class="cls-87" x="46.78" width="0.56" height="66"/><rect class="cls-88" x="47.35" width="0.56" height="66"/><rect class="cls-89" x="47.91" width="0.56" height="66"/><rect class="cls-90" x="48.47" width="0.56" height="66"/><rect class="cls-91" x="49.04" width="0.56" height="66"/><rect class="cls-92" x="49.6" width="0.56" height="66"/><rect class="cls-93" x="50.16" width="0.56" height="66"/><rect class="cls-94" x="50.73" width="0.56" height="66"/><rect class="cls-95" x="51.29" width="0.56" height="66"/><rect class="cls-96" x="51.85" width="0.56" height="66"/><rect class="cls-97" x="52.42" width="0.56" height="66"/><rect class="cls-98" x="52.98" width="0.56" height="66"/><rect class="cls-99" x="53.54" width="0.56" height="66"/><rect class="cls-100" x="54.11" width="0.56" height="66"/><rect class="cls-101" x="54.67" width="0.56" height="66"/><rect class="cls-102" x="55.24" width="0.56" height="66"/><rect class="cls-103" x="55.8" width="0.56" height="66"/><rect class="cls-104" x="56.36" width="0.56" height="66"/><rect class="cls-105" x="56.93" width="0.56" height="66"/><rect class="cls-106" x="57.49" width="0.56" height="66"/><rect class="cls-107" x="58.05" width="0.56" height="66"/><rect class="cls-108" x="58.62" width="0.56" height="66"/><rect class="cls-109" x="59.18" width="0.56" height="66"/><rect class="cls-110" x="59.74" width="0.56" height="66"/><rect class="cls-111" x="60.31" width="0.56" height="66"/><rect class="cls-112" x="60.87" width="0.56" height="66"/><rect class="cls-113" x="61.44" width="0.56" height="66"/><rect class="cls-114" x="62" width="0.56" height="66"/><rect class="cls-115" x="62.56" width="0.56" height="66"/><rect class="cls-116" x="63.13" width="0.56" height="66"/><rect class="cls-117" x="63.69" width="0.56" height="66"/><rect class="cls-118" x="64.25" width="0.56" height="66"/><rect class="cls-119" x="64.82" width="0.56" height="66"/><rect class="cls-120" x="65.38" width="0.56" height="66"/><rect class="cls-120" x="65.94" width="0.06" height="66"/></g></g></g></g></svg>