<svg xmlns="http://www.w3.org/2000/svg" viewBox="0 0 55.23 55.23"><defs><style>.cls-1{fill:#fff;}.cls-2{fill:#3cf;}</style></defs><g id="Layer_2" data-name="Layer 2"><g id="Layer_1-2" data-name="Layer 1"><g id="إتصل_بنا" data-name="إتصل بنا"><g id="Social_Media" data-name="Social Media"><circle class="cls-1" cx="27.62" cy="27.62" r="27.62"/><path class="cls-2" d="M42.87,18.15a11.89,11.89,0,0,1-3,.87c.49-.08,1.21-1,1.5-1.33a5.61,5.61,0,0,0,1-1.84s0-.12,0-.16a.18.18,0,0,0-.16,0,15.93,15.93,0,0,1-3.61,1.38.24.24,0,0,1-.25-.07A3.22,3.22,0,0,0,38,16.7a6.28,6.28,0,0,0-1.75-1.07,6.13,6.13,0,0,0-2.68-.44,6.5,6.5,0,0,0-2.55.72A6.79,6.79,0,0,0,29,17.59a6.34,6.34,0,0,0-1.23,2.46,6.64,6.64,0,0,0-.06,2.59c0,.15,0,.17-.12.15-5-.74-9.08-2.52-12.41-6.32-.15-.17-.23-.17-.35,0-1.46,2.19-.75,5.71,1.08,7.44a9.83,9.83,0,0,0,.76.67,6.36,6.36,0,0,1-2.4-.67c-.14-.09-.21,0-.23.12a4.29,4.29,0,0,0,0,.71A6.39,6.39,0,0,0,18,29.83a4.35,4.35,0,0,0,.8.24,7.2,7.2,0,0,1-2.35.07c-.17,0-.23.05-.17.22a6.59,6.59,0,0,0,4.94,4.13c.22,0,.44,0,.67.09l0,0c-.56.85-2.48,1.48-3.37,1.79a12.05,12.05,0,0,1-5.12.65c-.28,0-.33,0-.41,0s0,.12.08.19c.35.23.7.43,1.07.63a16.85,16.85,0,0,0,3.42,1.37c6.15,1.7,13.07.45,17.69-4.14,3.62-3.6,4.89-8.57,4.89-13.54,0-.2.23-.3.37-.41a11.91,11.91,0,0,0,2.41-2.5.74.74,0,0,0,.16-.48v0C43,18.07,43,18.1,42.87,18.15Z"/></g></g></g></g></svg>