<svg xmlns="http://www.w3.org/2000/svg" viewBox="0 0 55.23 55.23"><defs><style>.cls-1{fill:#fff;}.cls-2{fill:red;}</style></defs><g id="Layer_2" data-name="Layer 2"><g id="Layer_1-2" data-name="Layer 1"><g id="إتصل_بنا" data-name="إتصل بنا"><g id="Social_Media" data-name="Social Media"><circle class="cls-1" cx="27.62" cy="27.62" r="27.62"/><path class="cls-2" d="M42.4,23.6A6.63,6.63,0,0,0,35.77,17h-17a6.63,6.63,0,0,0-6.63,6.63v7.89a6.63,6.63,0,0,0,6.63,6.63h17a6.63,6.63,0,0,0,6.63-6.63Zm-10,4.54L24.82,31.9c-.29.16-1.31-.06-1.31-.39V23.78c0-.34,1-.56,1.32-.39l7.28,4C32.42,27.53,32.74,28,32.43,28.14Z"/></g></g></g></g></svg>